<mxfile host="Electron" agent="Mozilla/5.0 (Macintosh; Intel Mac OS X 10_15_7) AppleWebKit/537.36 (KHTML, like Gecko) draw.io/26.0.16 Chrome/132.0.6834.196 Electron/34.2.0 Safari/537.36" version="26.0.16">
  <diagram name="第 1 页" id="M2-zGbhgt3ag_IIkRx2r">
    <mxGraphModel dx="2911" dy="2878" grid="1" gridSize="10" guides="1" tooltips="1" connect="1" arrows="1" fold="1" page="1" pageScale="1" pageWidth="827" pageHeight="1169" math="0" shadow="0">
      <root>
        <mxCell id="0" />
        <mxCell id="1" parent="0" />
        <mxCell id="9oSkt1X6R4JOPy9Juw7Q-1" value="网络连接任务处理" style="rounded=0;whiteSpace=wrap;html=1;fillColor=#d5e8d4;strokeColor=#82b366;" parent="1" vertex="1">
          <mxGeometry x="304" y="60" width="110" height="50" as="geometry" />
        </mxCell>
        <mxCell id="9oSkt1X6R4JOPy9Juw7Q-2" value="定时任务处理" style="rounded=0;whiteSpace=wrap;html=1;fillColor=#d5e8d4;strokeColor=#82b366;" parent="1" vertex="1">
          <mxGeometry x="20" y="480" width="110" height="50" as="geometry" />
        </mxCell>
        <mxCell id="9oSkt1X6R4JOPy9Juw7Q-3" value="网络读写任务处理" style="rounded=0;whiteSpace=wrap;html=1;fillColor=#d5e8d4;strokeColor=#82b366;" parent="1" vertex="1">
          <mxGeometry x="610" y="480" width="110" height="50" as="geometry" />
        </mxCell>
        <mxCell id="9oSkt1X6R4JOPy9Juw7Q-6" value="" style="endArrow=classic;html=1;rounded=0;exitX=0;exitY=0.5;exitDx=0;exitDy=0;entryX=0.5;entryY=0;entryDx=0;entryDy=0;" parent="1" source="9oSkt1X6R4JOPy9Juw7Q-1" target="9oSkt1X6R4JOPy9Juw7Q-2" edge="1">
          <mxGeometry width="50" height="50" relative="1" as="geometry">
            <mxPoint x="390" y="420" as="sourcePoint" />
            <mxPoint x="440" y="370" as="targetPoint" />
          </mxGeometry>
        </mxCell>
        <mxCell id="9oSkt1X6R4JOPy9Juw7Q-7" value="" style="endArrow=classic;html=1;rounded=0;entryX=0;entryY=0.5;entryDx=0;entryDy=0;" parent="1" source="9oSkt1X6R4JOPy9Juw7Q-2" target="9oSkt1X6R4JOPy9Juw7Q-3" edge="1">
          <mxGeometry width="50" height="50" relative="1" as="geometry">
            <mxPoint x="314" y="215" as="sourcePoint" />
            <mxPoint x="215" y="350" as="targetPoint" />
          </mxGeometry>
        </mxCell>
        <mxCell id="Jlt6j3P95a3iS-jcTIwT-9" style="edgeStyle=orthogonalEdgeStyle;rounded=0;orthogonalLoop=1;jettySize=auto;html=1;exitX=0.5;exitY=0;exitDx=0;exitDy=0;entryX=0.5;entryY=1;entryDx=0;entryDy=0;" parent="1" source="9oSkt1X6R4JOPy9Juw7Q-8" target="9oSkt1X6R4JOPy9Juw7Q-21" edge="1">
          <mxGeometry relative="1" as="geometry" />
        </mxCell>
        <mxCell id="Jlt6j3P95a3iS-jcTIwT-12" value="唤醒" style="edgeLabel;html=1;align=center;verticalAlign=middle;resizable=0;points=[];" parent="Jlt6j3P95a3iS-jcTIwT-9" vertex="1" connectable="0">
          <mxGeometry x="-0.0857" relative="1" as="geometry">
            <mxPoint as="offset" />
          </mxGeometry>
        </mxCell>
        <mxCell id="9oSkt1X6R4JOPy9Juw7Q-8" value="syscall_复用器" style="ellipse;whiteSpace=wrap;html=1;aspect=fixed;fillColor=#f8cecc;strokeColor=#b85450;" parent="1" vertex="1">
          <mxGeometry x="302" y="270" width="114" height="114" as="geometry" />
        </mxCell>
        <mxCell id="9oSkt1X6R4JOPy9Juw7Q-11" style="edgeStyle=orthogonalEdgeStyle;rounded=0;orthogonalLoop=1;jettySize=auto;html=1;exitX=0;exitY=0.5;exitDx=0;exitDy=0;entryX=1;entryY=0.5;entryDx=0;entryDy=0;" parent="1" source="9oSkt1X6R4JOPy9Juw7Q-10" target="9oSkt1X6R4JOPy9Juw7Q-1" edge="1">
          <mxGeometry relative="1" as="geometry" />
        </mxCell>
        <mxCell id="9oSkt1X6R4JOPy9Juw7Q-12" value="poll" style="edgeLabel;html=1;align=center;verticalAlign=middle;resizable=0;points=[];" parent="9oSkt1X6R4JOPy9Juw7Q-11" vertex="1" connectable="0">
          <mxGeometry x="-0.0088" y="2" relative="1" as="geometry">
            <mxPoint y="-2" as="offset" />
          </mxGeometry>
        </mxCell>
        <mxCell id="9oSkt1X6R4JOPy9Juw7Q-10" value="accept队列ngx_posted_accept_events" style="rounded=0;whiteSpace=wrap;html=1;" parent="1" vertex="1">
          <mxGeometry x="827" y="70" width="170" height="30" as="geometry" />
        </mxCell>
        <mxCell id="9oSkt1X6R4JOPy9Juw7Q-15" style="edgeStyle=orthogonalEdgeStyle;rounded=0;orthogonalLoop=1;jettySize=auto;html=1;exitX=0;exitY=0.5;exitDx=0;exitDy=0;entryX=0.5;entryY=1;entryDx=0;entryDy=0;" parent="1" source="Jlt6j3P95a3iS-jcTIwT-1" target="9oSkt1X6R4JOPy9Juw7Q-2" edge="1">
          <mxGeometry relative="1" as="geometry" />
        </mxCell>
        <mxCell id="9oSkt1X6R4JOPy9Juw7Q-20" value="poll" style="edgeLabel;html=1;align=center;verticalAlign=middle;resizable=0;points=[];" parent="9oSkt1X6R4JOPy9Juw7Q-15" vertex="1" connectable="0">
          <mxGeometry x="-0.5309" y="-3" relative="1" as="geometry">
            <mxPoint x="32" y="3" as="offset" />
          </mxGeometry>
        </mxCell>
        <mxCell id="Jlt6j3P95a3iS-jcTIwT-4" style="edgeStyle=orthogonalEdgeStyle;rounded=0;orthogonalLoop=1;jettySize=auto;html=1;exitX=0;exitY=0.5;exitDx=0;exitDy=0;entryX=1;entryY=0.5;entryDx=0;entryDy=0;" parent="1" source="9oSkt1X6R4JOPy9Juw7Q-13" target="Jlt6j3P95a3iS-jcTIwT-1" edge="1">
          <mxGeometry relative="1" as="geometry" />
        </mxCell>
        <mxCell id="9oSkt1X6R4JOPy9Juw7Q-13" value="定时任务ngx_event_timer_rbtree" style="rounded=0;whiteSpace=wrap;html=1;" parent="1" vertex="1">
          <mxGeometry x="827" y="685" width="170" height="30" as="geometry" />
        </mxCell>
        <mxCell id="9oSkt1X6R4JOPy9Juw7Q-16" style="edgeStyle=orthogonalEdgeStyle;rounded=0;orthogonalLoop=1;jettySize=auto;html=1;exitX=0;exitY=0.5;exitDx=0;exitDy=0;entryX=1;entryY=0.5;entryDx=0;entryDy=0;" parent="1" source="9oSkt1X6R4JOPy9Juw7Q-14" target="9oSkt1X6R4JOPy9Juw7Q-3" edge="1">
          <mxGeometry relative="1" as="geometry" />
        </mxCell>
        <mxCell id="9oSkt1X6R4JOPy9Juw7Q-19" value="poll" style="edgeLabel;html=1;align=center;verticalAlign=middle;resizable=0;points=[];" parent="9oSkt1X6R4JOPy9Juw7Q-16" vertex="1" connectable="0">
          <mxGeometry x="0.1333" relative="1" as="geometry">
            <mxPoint as="offset" />
          </mxGeometry>
        </mxCell>
        <mxCell id="9oSkt1X6R4JOPy9Juw7Q-14" value="读写队列&lt;div&gt;ngx_posted_events&lt;/div&gt;" style="rounded=0;whiteSpace=wrap;html=1;" parent="1" vertex="1">
          <mxGeometry x="827" y="490" width="170" height="30" as="geometry" />
        </mxCell>
        <mxCell id="9oSkt1X6R4JOPy9Juw7Q-18" value="事件模型" style="text;html=1;align=center;verticalAlign=middle;whiteSpace=wrap;rounded=0;" parent="1" vertex="1">
          <mxGeometry x="610" y="-10" width="60" height="30" as="geometry" />
        </mxCell>
        <mxCell id="Jlt6j3P95a3iS-jcTIwT-5" style="edgeStyle=orthogonalEdgeStyle;rounded=0;orthogonalLoop=1;jettySize=auto;html=1;exitX=0;exitY=0.5;exitDx=0;exitDy=0;" parent="1" source="9oSkt1X6R4JOPy9Juw7Q-21" target="Jlt6j3P95a3iS-jcTIwT-1" edge="1">
          <mxGeometry relative="1" as="geometry" />
        </mxCell>
        <mxCell id="Jlt6j3P95a3iS-jcTIwT-10" style="edgeStyle=orthogonalEdgeStyle;rounded=0;orthogonalLoop=1;jettySize=auto;html=1;exitX=0.5;exitY=0;exitDx=0;exitDy=0;entryX=0.5;entryY=1;entryDx=0;entryDy=0;" parent="1" source="9oSkt1X6R4JOPy9Juw7Q-21" target="Jlt6j3P95a3iS-jcTIwT-7" edge="1">
          <mxGeometry relative="1" as="geometry" />
        </mxCell>
        <mxCell id="9oSkt1X6R4JOPy9Juw7Q-21" value="系统时间环形缓冲区&lt;span style=&quot;background-color: transparent; color: light-dark(rgb(0, 0, 0), rgb(255, 255, 255));&quot;&gt;cached_time&lt;/span&gt;&lt;div&gt;系统时间时间戳ngx_time_lock&lt;/div&gt;" style="rounded=1;whiteSpace=wrap;html=1;" parent="1" vertex="1">
          <mxGeometry x="264" y="180" width="190" height="40" as="geometry" />
        </mxCell>
        <mxCell id="9oSkt1X6R4JOPy9Juw7Q-22" value="" style="shape=curlyBracket;whiteSpace=wrap;html=1;rounded=1;labelPosition=left;verticalLabelPosition=middle;align=right;verticalAlign=middle;" parent="1" vertex="1">
          <mxGeometry x="430" y="255" width="20" height="120" as="geometry" />
        </mxCell>
        <mxCell id="9oSkt1X6R4JOPy9Juw7Q-23" value="阻塞方式 有事件就绪" style="text;html=1;align=center;verticalAlign=middle;whiteSpace=wrap;rounded=0;" parent="1" vertex="1">
          <mxGeometry x="460" y="250" width="130" height="30" as="geometry" />
        </mxCell>
        <mxCell id="9oSkt1X6R4JOPy9Juw7Q-24" value="非阻塞方式 超时到期" style="text;html=1;align=center;verticalAlign=middle;whiteSpace=wrap;rounded=0;" parent="1" vertex="1">
          <mxGeometry x="460" y="300" width="130" height="30" as="geometry" />
        </mxCell>
        <mxCell id="9oSkt1X6R4JOPy9Juw7Q-32" style="edgeStyle=orthogonalEdgeStyle;rounded=0;orthogonalLoop=1;jettySize=auto;html=1;exitX=1;exitY=0.5;exitDx=0;exitDy=0;entryX=1;entryY=0.5;entryDx=0;entryDy=0;" parent="1" source="9oSkt1X6R4JOPy9Juw7Q-25" target="9oSkt1X6R4JOPy9Juw7Q-21" edge="1">
          <mxGeometry relative="1" as="geometry">
            <Array as="points">
              <mxPoint x="724" y="360" />
              <mxPoint x="724" y="200" />
            </Array>
            <mxPoint x="574" y="375" as="sourcePoint" />
            <mxPoint x="478" y="215" as="targetPoint" />
          </mxGeometry>
        </mxCell>
        <mxCell id="9oSkt1X6R4JOPy9Juw7Q-33" value="更新系统时间" style="edgeLabel;html=1;align=center;verticalAlign=middle;resizable=0;points=[];" parent="9oSkt1X6R4JOPy9Juw7Q-32" vertex="1" connectable="0">
          <mxGeometry x="-0.0857" y="-1" relative="1" as="geometry">
            <mxPoint as="offset" />
          </mxGeometry>
        </mxCell>
        <mxCell id="9oSkt1X6R4JOPy9Juw7Q-25" value="定时器事件" style="text;html=1;align=center;verticalAlign=middle;whiteSpace=wrap;rounded=0;" parent="1" vertex="1">
          <mxGeometry x="460" y="345" width="90" height="30" as="geometry" />
        </mxCell>
        <mxCell id="9oSkt1X6R4JOPy9Juw7Q-26" style="edgeStyle=orthogonalEdgeStyle;rounded=0;orthogonalLoop=1;jettySize=auto;html=1;exitX=0.5;exitY=1;exitDx=0;exitDy=0;" parent="1" source="9oSkt1X6R4JOPy9Juw7Q-24" target="9oSkt1X6R4JOPy9Juw7Q-24" edge="1">
          <mxGeometry relative="1" as="geometry" />
        </mxCell>
        <mxCell id="9oSkt1X6R4JOPy9Juw7Q-43" style="edgeStyle=orthogonalEdgeStyle;rounded=0;orthogonalLoop=1;jettySize=auto;html=1;exitX=0;exitY=0.5;exitDx=0;exitDy=0;entryX=1;entryY=0.5;entryDx=0;entryDy=0;" parent="1" source="9oSkt1X6R4JOPy9Juw7Q-34" target="9oSkt1X6R4JOPy9Juw7Q-38" edge="1">
          <mxGeometry relative="1" as="geometry" />
        </mxCell>
        <mxCell id="9oSkt1X6R4JOPy9Juw7Q-34" value="data" style="rounded=0;whiteSpace=wrap;html=1;" parent="1" vertex="1">
          <mxGeometry x="1330" y="230" width="80" height="30" as="geometry" />
        </mxCell>
        <mxCell id="9oSkt1X6R4JOPy9Juw7Q-35" value="event" style="text;html=1;align=center;verticalAlign=middle;whiteSpace=wrap;rounded=0;" parent="1" vertex="1">
          <mxGeometry x="1340" y="200" width="60" height="30" as="geometry" />
        </mxCell>
        <mxCell id="9oSkt1X6R4JOPy9Juw7Q-36" value="instance" style="rounded=0;whiteSpace=wrap;html=1;" parent="1" vertex="1">
          <mxGeometry x="1330" y="260" width="80" height="30" as="geometry" />
        </mxCell>
        <mxCell id="9oSkt1X6R4JOPy9Juw7Q-44" style="edgeStyle=orthogonalEdgeStyle;rounded=0;orthogonalLoop=1;jettySize=auto;html=1;exitX=0;exitY=0.5;exitDx=0;exitDy=0;entryX=1;entryY=0.5;entryDx=0;entryDy=0;" parent="1" source="9oSkt1X6R4JOPy9Juw7Q-37" target="9oSkt1X6R4JOPy9Juw7Q-40" edge="1">
          <mxGeometry relative="1" as="geometry" />
        </mxCell>
        <mxCell id="9oSkt1X6R4JOPy9Juw7Q-37" value="fd" style="rounded=0;whiteSpace=wrap;html=1;" parent="1" vertex="1">
          <mxGeometry x="1180" y="230" width="80" height="30" as="geometry" />
        </mxCell>
        <mxCell id="9oSkt1X6R4JOPy9Juw7Q-38" value="connection" style="text;html=1;align=center;verticalAlign=middle;whiteSpace=wrap;rounded=0;" parent="1" vertex="1">
          <mxGeometry x="1190" y="200" width="60" height="30" as="geometry" />
        </mxCell>
        <mxCell id="9oSkt1X6R4JOPy9Juw7Q-40" value="系统fd" style="rounded=0;whiteSpace=wrap;html=1;" parent="1" vertex="1">
          <mxGeometry x="1040" y="230" width="80" height="30" as="geometry" />
        </mxCell>
        <mxCell id="9oSkt1X6R4JOPy9Juw7Q-45" value="fd" style="rounded=0;whiteSpace=wrap;html=1;" parent="1" vertex="1">
          <mxGeometry x="314" y="345" width="40" height="15" as="geometry" />
        </mxCell>
        <mxCell id="9oSkt1X6R4JOPy9Juw7Q-51" style="edgeStyle=orthogonalEdgeStyle;rounded=0;orthogonalLoop=1;jettySize=auto;html=1;exitX=0.5;exitY=1;exitDx=0;exitDy=0;entryX=0.5;entryY=0;entryDx=0;entryDy=0;" parent="1" source="9oSkt1X6R4JOPy9Juw7Q-46" target="9oSkt1X6R4JOPy9Juw7Q-50" edge="1">
          <mxGeometry relative="1" as="geometry" />
        </mxCell>
        <mxCell id="9oSkt1X6R4JOPy9Juw7Q-46" value="udata" style="rounded=0;whiteSpace=wrap;html=1;" parent="1" vertex="1">
          <mxGeometry x="354" y="345" width="50" height="15" as="geometry" />
        </mxCell>
        <mxCell id="9oSkt1X6R4JOPy9Juw7Q-52" style="edgeStyle=orthogonalEdgeStyle;rounded=0;orthogonalLoop=1;jettySize=auto;html=1;exitX=0.5;exitY=1;exitDx=0;exitDy=0;" parent="1" source="9oSkt1X6R4JOPy9Juw7Q-48" target="9oSkt1X6R4JOPy9Juw7Q-35" edge="1">
          <mxGeometry relative="1" as="geometry">
            <Array as="points">
              <mxPoint x="415" y="470" />
              <mxPoint x="890" y="470" />
              <mxPoint x="890" y="170" />
              <mxPoint x="1370" y="170" />
            </Array>
          </mxGeometry>
        </mxCell>
        <mxCell id="9oSkt1X6R4JOPy9Juw7Q-48" value="event" style="rounded=0;whiteSpace=wrap;html=1;" parent="1" vertex="1">
          <mxGeometry x="380" y="440" width="70" height="20" as="geometry" />
        </mxCell>
        <mxCell id="9oSkt1X6R4JOPy9Juw7Q-49" value="防伪码" style="rounded=0;whiteSpace=wrap;html=1;" parent="1" vertex="1">
          <mxGeometry x="450" y="440" width="70" height="20" as="geometry" />
        </mxCell>
        <mxCell id="9oSkt1X6R4JOPy9Juw7Q-50" value="伪指针" style="text;html=1;align=center;verticalAlign=middle;whiteSpace=wrap;rounded=0;" parent="1" vertex="1">
          <mxGeometry x="418" y="410" width="60" height="30" as="geometry" />
        </mxCell>
        <mxCell id="9oSkt1X6R4JOPy9Juw7Q-53" value="" style="endArrow=none;dashed=1;html=1;dashPattern=1 3;strokeWidth=2;rounded=0;exitX=1;exitY=0.5;exitDx=0;exitDy=0;entryX=0;entryY=0.5;entryDx=0;entryDy=0;" parent="1" source="9oSkt1X6R4JOPy9Juw7Q-49" target="9oSkt1X6R4JOPy9Juw7Q-36" edge="1">
          <mxGeometry width="50" height="50" relative="1" as="geometry">
            <mxPoint x="700" y="340" as="sourcePoint" />
            <mxPoint x="750" y="290" as="targetPoint" />
          </mxGeometry>
        </mxCell>
        <mxCell id="9oSkt1X6R4JOPy9Juw7Q-54" value="CMP鉴伪" style="edgeLabel;html=1;align=center;verticalAlign=middle;resizable=0;points=[];" parent="9oSkt1X6R4JOPy9Juw7Q-53" vertex="1" connectable="0">
          <mxGeometry x="0.0461" y="-2" relative="1" as="geometry">
            <mxPoint y="-1" as="offset" />
          </mxGeometry>
        </mxCell>
        <mxCell id="Jlt6j3P95a3iS-jcTIwT-1" value="定时任务到期校验" style="rounded=0;whiteSpace=wrap;html=1;" parent="1" vertex="1">
          <mxGeometry x="190" y="680" width="108" height="40" as="geometry" />
        </mxCell>
        <mxCell id="Jlt6j3P95a3iS-jcTIwT-11" style="edgeStyle=orthogonalEdgeStyle;rounded=0;orthogonalLoop=1;jettySize=auto;html=1;exitX=0.5;exitY=0;exitDx=0;exitDy=0;entryX=0.5;entryY=1;entryDx=0;entryDy=0;" parent="1" source="Jlt6j3P95a3iS-jcTIwT-7" target="9oSkt1X6R4JOPy9Juw7Q-1" edge="1">
          <mxGeometry relative="1" as="geometry" />
        </mxCell>
        <mxCell id="Jlt6j3P95a3iS-jcTIwT-14" style="edgeStyle=orthogonalEdgeStyle;rounded=0;orthogonalLoop=1;jettySize=auto;html=1;exitX=1;exitY=0.5;exitDx=0;exitDy=0;entryX=1;entryY=0.5;entryDx=0;entryDy=0;" parent="1" source="Jlt6j3P95a3iS-jcTIwT-7" target="9oSkt1X6R4JOPy9Juw7Q-10" edge="1">
          <mxGeometry relative="1" as="geometry" />
        </mxCell>
        <mxCell id="Jlt6j3P95a3iS-jcTIwT-15" value="offer" style="edgeLabel;html=1;align=center;verticalAlign=middle;resizable=0;points=[];" parent="Jlt6j3P95a3iS-jcTIwT-14" vertex="1" connectable="0">
          <mxGeometry x="-0.4054" y="1" relative="1" as="geometry">
            <mxPoint as="offset" />
          </mxGeometry>
        </mxCell>
        <mxCell id="Jlt6j3P95a3iS-jcTIwT-16" style="edgeStyle=orthogonalEdgeStyle;rounded=0;orthogonalLoop=1;jettySize=auto;html=1;exitX=1;exitY=0.5;exitDx=0;exitDy=0;entryX=1;entryY=0.5;entryDx=0;entryDy=0;" parent="1" source="Jlt6j3P95a3iS-jcTIwT-7" target="9oSkt1X6R4JOPy9Juw7Q-14" edge="1">
          <mxGeometry relative="1" as="geometry">
            <Array as="points">
              <mxPoint x="1017" y="155" />
              <mxPoint x="1017" y="505" />
            </Array>
          </mxGeometry>
        </mxCell>
        <mxCell id="Jlt6j3P95a3iS-jcTIwT-7" value="任务入队" style="rounded=0;whiteSpace=wrap;html=1;" parent="1" vertex="1">
          <mxGeometry x="311" y="130" width="96" height="30" as="geometry" />
        </mxCell>
        <mxCell id="r4j8TS6KDllZ3D767SkW-6" style="edgeStyle=orthogonalEdgeStyle;rounded=0;orthogonalLoop=1;jettySize=auto;html=1;exitX=0.5;exitY=1;exitDx=0;exitDy=0;" edge="1" parent="1" source="r4j8TS6KDllZ3D767SkW-1" target="r4j8TS6KDllZ3D767SkW-3">
          <mxGeometry relative="1" as="geometry" />
        </mxCell>
        <mxCell id="r4j8TS6KDllZ3D767SkW-7" style="edgeStyle=orthogonalEdgeStyle;rounded=0;orthogonalLoop=1;jettySize=auto;html=1;exitX=0.5;exitY=1;exitDx=0;exitDy=0;entryX=0.5;entryY=0;entryDx=0;entryDy=0;" edge="1" parent="1" source="r4j8TS6KDllZ3D767SkW-1" target="r4j8TS6KDllZ3D767SkW-4">
          <mxGeometry relative="1" as="geometry" />
        </mxCell>
        <mxCell id="r4j8TS6KDllZ3D767SkW-8" style="edgeStyle=orthogonalEdgeStyle;rounded=0;orthogonalLoop=1;jettySize=auto;html=1;exitX=0.5;exitY=1;exitDx=0;exitDy=0;entryX=0.5;entryY=0;entryDx=0;entryDy=0;" edge="1" parent="1" source="r4j8TS6KDllZ3D767SkW-1" target="r4j8TS6KDllZ3D767SkW-5">
          <mxGeometry relative="1" as="geometry" />
        </mxCell>
        <mxCell id="r4j8TS6KDllZ3D767SkW-9" value="创建\管理" style="edgeLabel;html=1;align=center;verticalAlign=middle;resizable=0;points=[];" vertex="1" connectable="0" parent="r4j8TS6KDllZ3D767SkW-8">
          <mxGeometry x="-0.8295" y="1" relative="1" as="geometry">
            <mxPoint as="offset" />
          </mxGeometry>
        </mxCell>
        <mxCell id="r4j8TS6KDllZ3D767SkW-11" style="edgeStyle=orthogonalEdgeStyle;rounded=0;orthogonalLoop=1;jettySize=auto;html=1;exitX=0;exitY=0.5;exitDx=0;exitDy=0;entryX=0;entryY=0.5;entryDx=0;entryDy=0;" edge="1" parent="1" source="r4j8TS6KDllZ3D767SkW-1" target="r4j8TS6KDllZ3D767SkW-10">
          <mxGeometry relative="1" as="geometry">
            <Array as="points">
              <mxPoint x="310" y="-690" />
              <mxPoint x="310" y="-190" />
            </Array>
          </mxGeometry>
        </mxCell>
        <mxCell id="r4j8TS6KDllZ3D767SkW-12" value="初始化socket资源 listen在端口上" style="edgeLabel;html=1;align=center;verticalAlign=middle;resizable=0;points=[];" vertex="1" connectable="0" parent="r4j8TS6KDllZ3D767SkW-11">
          <mxGeometry x="-0.6515" y="1" relative="1" as="geometry">
            <mxPoint as="offset" />
          </mxGeometry>
        </mxCell>
        <mxCell id="r4j8TS6KDllZ3D767SkW-1" value="master进程" style="rounded=0;whiteSpace=wrap;html=1;" vertex="1" parent="1">
          <mxGeometry x="610" y="-720" width="120" height="60" as="geometry" />
        </mxCell>
        <mxCell id="r4j8TS6KDllZ3D767SkW-2" value="进程模型" style="text;html=1;align=center;verticalAlign=middle;whiteSpace=wrap;rounded=0;" vertex="1" parent="1">
          <mxGeometry x="640" y="-760" width="60" height="30" as="geometry" />
        </mxCell>
        <mxCell id="r4j8TS6KDllZ3D767SkW-15" style="edgeStyle=orthogonalEdgeStyle;rounded=0;orthogonalLoop=1;jettySize=auto;html=1;exitX=0.5;exitY=1;exitDx=0;exitDy=0;" edge="1" parent="1" source="r4j8TS6KDllZ3D767SkW-3" target="r4j8TS6KDllZ3D767SkW-14">
          <mxGeometry relative="1" as="geometry" />
        </mxCell>
        <mxCell id="r4j8TS6KDllZ3D767SkW-3" value="worker进程" style="rounded=0;whiteSpace=wrap;html=1;" vertex="1" parent="1">
          <mxGeometry x="404" y="-510" width="90" height="40" as="geometry" />
        </mxCell>
        <mxCell id="r4j8TS6KDllZ3D767SkW-16" style="edgeStyle=orthogonalEdgeStyle;rounded=0;orthogonalLoop=1;jettySize=auto;html=1;exitX=0.5;exitY=1;exitDx=0;exitDy=0;entryX=0.5;entryY=0;entryDx=0;entryDy=0;" edge="1" parent="1" source="r4j8TS6KDllZ3D767SkW-4" target="r4j8TS6KDllZ3D767SkW-14">
          <mxGeometry relative="1" as="geometry" />
        </mxCell>
        <mxCell id="r4j8TS6KDllZ3D767SkW-4" value="worker进程" style="rounded=0;whiteSpace=wrap;html=1;" vertex="1" parent="1">
          <mxGeometry x="625" y="-510" width="90" height="40" as="geometry" />
        </mxCell>
        <mxCell id="r4j8TS6KDllZ3D767SkW-18" style="edgeStyle=orthogonalEdgeStyle;rounded=0;orthogonalLoop=1;jettySize=auto;html=1;exitX=0.5;exitY=1;exitDx=0;exitDy=0;" edge="1" parent="1" source="r4j8TS6KDllZ3D767SkW-5" target="r4j8TS6KDllZ3D767SkW-14">
          <mxGeometry relative="1" as="geometry" />
        </mxCell>
        <mxCell id="r4j8TS6KDllZ3D767SkW-19" value="每一轮事件循环中竞争锁" style="edgeLabel;html=1;align=center;verticalAlign=middle;resizable=0;points=[];" vertex="1" connectable="0" parent="r4j8TS6KDllZ3D767SkW-18">
          <mxGeometry x="0.8511" y="1" relative="1" as="geometry">
            <mxPoint as="offset" />
          </mxGeometry>
        </mxCell>
        <mxCell id="r4j8TS6KDllZ3D767SkW-5" value="worker进程" style="rounded=0;whiteSpace=wrap;html=1;" vertex="1" parent="1">
          <mxGeometry x="827" y="-510" width="90" height="40" as="geometry" />
        </mxCell>
        <mxCell id="r4j8TS6KDllZ3D767SkW-28" style="edgeStyle=orthogonalEdgeStyle;rounded=0;orthogonalLoop=1;jettySize=auto;html=1;exitX=0.5;exitY=1;exitDx=0;exitDy=0;entryX=0;entryY=0.5;entryDx=0;entryDy=0;" edge="1" parent="1" source="r4j8TS6KDllZ3D767SkW-10" target="9oSkt1X6R4JOPy9Juw7Q-8">
          <mxGeometry relative="1" as="geometry">
            <Array as="points">
              <mxPoint x="670" y="-50" />
              <mxPoint x="190" y="-50" />
              <mxPoint x="190" y="327" />
            </Array>
          </mxGeometry>
        </mxCell>
        <mxCell id="r4j8TS6KDllZ3D767SkW-29" value="没人监听的端口都注册上对连接事件的监听" style="edgeLabel;html=1;align=center;verticalAlign=middle;resizable=0;points=[];" vertex="1" connectable="0" parent="r4j8TS6KDllZ3D767SkW-28">
          <mxGeometry x="-0.2535" y="1" relative="1" as="geometry">
            <mxPoint as="offset" />
          </mxGeometry>
        </mxCell>
        <mxCell id="r4j8TS6KDllZ3D767SkW-10" value="监听服务端端口&lt;div&gt;socket插口&lt;/div&gt;" style="ellipse;whiteSpace=wrap;html=1;" vertex="1" parent="1">
          <mxGeometry x="610" y="-230" width="120" height="80" as="geometry" />
        </mxCell>
        <mxCell id="r4j8TS6KDllZ3D767SkW-20" style="edgeStyle=orthogonalEdgeStyle;rounded=0;orthogonalLoop=1;jettySize=auto;html=1;exitX=0.5;exitY=1;exitDx=0;exitDy=0;entryX=0.5;entryY=0;entryDx=0;entryDy=0;" edge="1" parent="1" source="r4j8TS6KDllZ3D767SkW-14" target="r4j8TS6KDllZ3D767SkW-10">
          <mxGeometry relative="1" as="geometry" />
        </mxCell>
        <mxCell id="r4j8TS6KDllZ3D767SkW-21" value="成功" style="edgeLabel;html=1;align=center;verticalAlign=middle;resizable=0;points=[];" vertex="1" connectable="0" parent="r4j8TS6KDllZ3D767SkW-20">
          <mxGeometry x="-0.3" y="2" relative="1" as="geometry">
            <mxPoint as="offset" />
          </mxGeometry>
        </mxCell>
        <mxCell id="r4j8TS6KDllZ3D767SkW-26" style="edgeStyle=orthogonalEdgeStyle;rounded=0;orthogonalLoop=1;jettySize=auto;html=1;exitX=1;exitY=0.5;exitDx=0;exitDy=0;entryX=1;entryY=0.5;entryDx=0;entryDy=0;" edge="1" parent="1" source="r4j8TS6KDllZ3D767SkW-14" target="9oSkt1X6R4JOPy9Juw7Q-8">
          <mxGeometry relative="1" as="geometry">
            <Array as="points">
              <mxPoint x="790" y="-330" />
              <mxPoint x="790" y="327" />
            </Array>
          </mxGeometry>
        </mxCell>
        <mxCell id="r4j8TS6KDllZ3D767SkW-27" value="失败 删除已经监听的连接事件" style="edgeLabel;html=1;align=center;verticalAlign=middle;resizable=0;points=[];" vertex="1" connectable="0" parent="r4j8TS6KDllZ3D767SkW-26">
          <mxGeometry x="-0.9676" relative="1" as="geometry">
            <mxPoint x="52" y="80" as="offset" />
          </mxGeometry>
        </mxCell>
        <mxCell id="r4j8TS6KDllZ3D767SkW-14" value="accept锁" style="rhombus;whiteSpace=wrap;html=1;" vertex="1" parent="1">
          <mxGeometry x="630" y="-370" width="80" height="80" as="geometry" />
        </mxCell>
      </root>
    </mxGraphModel>
  </diagram>
</mxfile>
